<svg width="17" height="13" viewBox="0 0 17 13" fill="none" xmlns="http://www.w3.org/2000/svg">
<path d="M8.49984 1V9M8.49984 9L5.6665 6.33333M8.49984 9L11.3332 6.33333M5.6665 2.33333H2.83317C2.45745 2.33333 2.09711 2.47381 1.83144 2.72386C1.56576 2.97391 1.4165 3.31304 1.4165 3.66667V10.3333C1.4165 10.687 1.56576 11.0261 1.83144 11.2761C2.09711 11.5262 2.45745 11.6667 2.83317 11.6667H14.1665C14.5422 11.6667 14.9026 11.5262 15.1682 11.2761C15.4339 11.0261 15.5832 10.687 15.5832 10.3333V3.66667C15.5832 3.31304 15.4339 2.97391 15.1682 2.72386C14.9026 2.47381 14.5422 2.33333 14.1665 2.33333H11.3332" stroke="#09090B" stroke-linecap="round" stroke-linejoin="round"/>
</svg>
