<svg width="25" height="24" viewBox="0 0 25 24" fill="none" xmlns="http://www.w3.org/2000/svg">
<path d="M16.75 21V19C16.75 17.9391 16.3286 16.9217 15.5784 16.1716C14.8283 15.4214 13.8109 15 12.75 15H6.75C5.68913 15 4.67172 15.4214 3.92157 16.1716C3.17143 16.9217 2.75 17.9391 2.75 19V21M22.75 20.9999V18.9999C22.7493 18.1136 22.4544 17.2527 21.9114 16.5522C21.3684 15.8517 20.6081 15.3515 19.75 15.1299M16.75 3.12988C17.6104 3.35018 18.373 3.85058 18.9176 4.55219C19.4622 5.2538 19.7578 6.11671 19.7578 7.00488C19.7578 7.89305 19.4622 8.75596 18.9176 9.45757C18.373 10.1592 17.6104 10.6596 16.75 10.8799M13.75 7C13.75 9.20914 11.9591 11 9.75 11C7.54086 11 5.75 9.20914 5.75 7C5.75 4.79086 7.54086 3 9.75 3C11.9591 3 13.75 4.79086 13.75 7Z" stroke="#4338CA" stroke-width="1.5" stroke-linecap="round" stroke-linejoin="round"/>
</svg>
